<svg xmlns="http://www.w3.org/2000/svg" width="1349" height="1105" viewBox="0 0 1349 1105">
  <path fill="#FFF" fill-rule="evenodd" d="M1218.296,260.1478 C1146.453,260.1478 1088.232,201.8918 1088.232,130.0288 C1088.232,58.2028 1146.453,0.0018 1218.296,0.0018 C1290.102,0.0018 1348.321,58.2028 1348.321,130.0288 C1348.321,201.8918 1290.102,260.1478 1218.296,260.1478 M552.087,1104.1808 C247.139,1104.1048 0.056,857.0008 0,552.1098 C0.056,247.1808 247.139,0.0588 552.087,0.0018 C857.036,0.0588 1104.082,247.1808 1104.177,552.1098 C1104.082,857.0008 857.036,1104.1048 552.087,1104.1808 M552.087,176.7018 C448.13,176.7588 354.82,218.5468 286.608,286.5718 C218.562,354.8608 176.717,448.1328 176.661,552.1098 C176.717,656.0098 218.562,749.3208 286.608,817.5158 C354.82,885.5958 448.13,927.4408 552.087,927.4968 C656.028,927.4408 749.297,885.5958 817.53,817.5158 C885.632,749.3208 927.458,656.0098 927.458,552.1098 C927.458,448.1328 885.632,354.8608 817.53,286.5718 C749.297,218.5468 656.028,176.7588 552.087,176.7018"/>
</svg>
